<?xml version="1.0" standalone="no"?>
<!DOCTYPE svg PUBLIC "-//W3C//DTD SVG 20010904//EN"
 "http://www.w3.org/TR/2001/REC-SVG-20010904/DTD/svg10.dtd">
<svg version="1.0" xmlns="http://www.w3.org/2000/svg"
 width="32.000000pt" height="32.000000pt" viewBox="0 0 32.000000 32.000000"
 preserveAspectRatio="xMidYMid meet">

<g transform="translate(0.000000,32.000000) scale(0.100000,-0.100000)"
fill="#000000" stroke="none">
<path d="M123 293 c-7 -2 -13 -13 -13 -23 0 -14 7 -18 27 -17 36 3 42 -28 14
-74 -24 -39 -27 -59 -8 -59 17 1 57 89 57 126 0 46 -32 66 -77 47z"/>
<path d="M294 170 c0 -74 1 -105 3 -67 2 37 2 97 0 135 -2 37 -3 6 -3 -68z"/>
<path d="M45 160 l-38 -39 38 -36 c59 -54 79 -45 24 11 l-30 31 32 27 c20 17
28 31 22 37 -5 5 -23 -6 -48 -31z"/>
<path d="M133 74 c-8 -21 13 -42 28 -27 13 13 5 43 -11 43 -6 0 -13 -7 -17
-16z"/>
</g>
</svg>
